<svg width="32" height="32" viewBox="0 0 82 85" xmlns="http://www.w3.org/2000/svg">
  <path fill-rule="evenodd" clip-rule="evenodd" d="M81.1191 84.3604H63.7197L57.7803 68.6406H23.0605L17.04 84.3604H0L33.96 0H47.2793L81.1191 84.3604ZM40.6025 15.3604C40.3273 15.3687 40.0359 15.5392 39.9307 15.8174C39.4722 17.0245 37.7109 19.5549 35.6709 22.4863C30.9986 29.1963 24.5999 38.386 24.5996 44.3652C24.5996 48.3028 26.0304 51.9123 28.3984 54.7021L28.3008 54.96H28.623C31.5554 58.2697 35.8344 60.3603 40.5938 60.3604C45.3533 60.3604 49.633 58.2699 52.5654 54.96H52.6113L52.5977 54.9229C55.0797 52.1039 56.5879 48.4077 56.5879 44.3652C56.5876 38.4826 50.3045 29.4545 45.7168 22.8623C43.5683 19.7758 41.713 17.1094 41.2627 15.833C41.1631 15.5523 40.9002 15.3641 40.6025 15.3604Z" fill="#D4D4D8"/>
</svg>