<svg width="82" height="85" viewBox="0 0 82 85" fill="none" xmlns="http://www.w3.org/2000/svg">
<path fill-rule="evenodd" clip-rule="evenodd" d="M81.1191 84.3604H63.7197L57.7803 68.6406H23.0605L17.04 84.3604H0L33.96 0H47.2793L81.1191 84.3604ZM40.6016 18.3604C40.3607 18.3676 40.1059 18.515 40.0137 18.7559C39.6126 19.8019 38.071 21.9953 36.2852 24.5361C32.1954 30.3515 26.5939 38.316 26.5938 43.498C26.5938 51.1416 32.8739 57.3603 40.5938 57.3604C48.3136 57.3604 54.5938 51.1417 54.5938 43.498C54.5936 38.3998 49.0938 30.5756 45.0781 24.8623C43.1975 22.1874 41.5729 19.8767 41.1787 18.7705C41.0916 18.5271 40.8622 18.3637 40.6016 18.3604Z" fill="#D4D4D8"/>
</svg>